<svg version="1.2" xmlns="http://www.w3.org/2000/svg" viewBox="0 0 659 440" width="659" height="440">
	<title>docker-svg</title>
	<style>
		.s0 { fill: #1d63ed } 
	</style>
	<path fill-rule="evenodd" class="s0" d="m576.4 184.2l8.3 5.6c0 0-5 10.4-5.5 11.1-21.9 42-66.5 39.2-83.4 39-51.4 128.2-135.8 181.2-234.4 181.1-64.6 0-107.8-20.9-136.4-49.4q-6.9-6.9-12.7-14.4c-35.2-44.8-39.8-99.8-39.3-128.5h196.6c127.4 0 156.1 4.1 187.3-13.9-8.3-10-12.6-23.9-13.9-36.2-1.6-20 3-42 13.9-58.5l5.6-8.3 8.3 5.6c22.5 17.4 34.8 37.5 36.1 61.2 24-6.4 57-2.8 69.5 5.6zm-375.1-26.2v55h-55.2v-55zm71.4 0v55h-55.3v-55zm71.4 0v55h-55.3v-55zm71.5 0v55h-55.3v-55zm-285.7 0v55h-55.3v-55zm71.4-69.5v55h-55.2v-55zm71.4 0v55h-55.3v-55zm71.4 0v55h-55.3v-55zm0-69.5v55h-55.3v-55z"/>
</svg>